<svg enable-background="new 0 0 58 58" height="512" viewBox="0 0 58 58" width="512" xmlns="http://www.w3.org/2000/svg"><circle cx="46" cy="46" fill="#57abc1" r="12"/><circle cx="29" cy="12" fill="#ebba16" r="12"/><circle cx="12" cy="46" fill="#366db6" r="12"/><path d="m55 32c-.552 0-1-.448-1-1 0-.967-.051-1.939-.152-2.889-.058-.549.34-1.042.889-1.101.549-.05 1.042.339 1.101.889.107 1.02.162 2.063.162 3.101 0 .552-.448 1-1 1zm-.639-5.955c-.459 0-.873-.318-.976-.785-.207-.941-.469-1.875-.778-2.778-.179-.522.099-1.091.622-1.27.523-.181 1.091.099 1.27.622.334.974.617 1.982.84 2.997.119.54-.222 1.073-.762 1.191-.073.016-.145.023-.216.023zm-1.945-5.662c-.372 0-.73-.209-.902-.567-.416-.865-.886-1.711-1.399-2.516-.297-.466-.16-1.084.306-1.381.465-.295 1.083-.16 1.381.306.555.871 1.065 1.788 1.515 2.725.239.498.029 1.095-.468 1.334-.14.068-.287.099-.433.099zm-3.219-5.046c-.289 0-.575-.124-.772-.364-.607-.737-1.267-1.445-1.96-2.104-.4-.381-.417-1.014-.036-1.414.381-.399 1.013-.415 1.414-.036.752.715 1.468 1.483 2.126 2.283.351.426.29 1.057-.136 1.408-.187.153-.412.227-.636.227z" fill="#61b872"/><path d="m3 32c-.552 0-1-.448-1-1 0-1.038.055-2.081.163-3.101.059-.549.554-.938 1.101-.889.549.059.947.551.889 1.101-.102.95-.153 1.922-.153 2.889 0 .552-.448 1-1 1zm.639-5.955c-.071 0-.144-.007-.216-.023-.54-.119-.88-.652-.762-1.191.223-1.015.506-2.023.84-2.997.179-.523.747-.803 1.27-.622.522.179.801.748.622 1.27-.31.903-.571 1.837-.778 2.778-.103.467-.517.785-.976.785zm1.945-5.662c-.146 0-.293-.032-.433-.099-.498-.239-.708-.836-.468-1.334.45-.937.96-1.854 1.515-2.725.297-.466.917-.601 1.381-.306.466.297.603.915.306 1.381-.513.804-.983 1.65-1.399 2.516-.172.358-.53.567-.902.567zm3.219-5.046c-.224 0-.449-.075-.635-.228-.426-.351-.487-.981-.136-1.408.659-.799 1.374-1.567 2.126-2.283.4-.379 1.033-.363 1.414.036.38.4.364 1.033-.036 1.414-.694.659-1.354 1.367-1.96 2.104-.198.241-.484.365-.773.365z" fill="#61b872"/><g fill="#dc691d"><path d="m30 13h-5c-.552 0-1-.448-1-1v-6c0-.552.448-1 1-1h5c2.206 0 4 1.794 4 4s-1.794 4-4 4zm-4-2h4c1.103 0 2-.897 2-2s-.897-2-2-2h-4z"/><path d="m30 19h-5c-.552 0-1-.448-1-1v-6c0-.552.448-1 1-1h5c2.206 0 4 1.794 4 4s-1.794 4-4 4zm-4-2h4c1.103 0 2-.897 2-2s-.897-2-2-2h-4z"/><path d="m26 7c-.552 0-1-.448-1-1v-2c0-.552.448-1 1-1s1 .448 1 1v2c0 .552-.448 1-1 1z"/><path d="m30 7c-.552 0-1-.448-1-1v-2c0-.552.448-1 1-1s1 .448 1 1v2c0 .552-.448 1-1 1z"/><path d="m26 21c-.552 0-1-.448-1-1v-2c0-.552.448-1 1-1s1 .448 1 1v2c0 .552-.448 1-1 1z"/><path d="m30 21c-.552 0-1-.448-1-1v-2c0-.552.448-1 1-1s1 .448 1 1v2c0 .552-.448 1-1 1z"/></g><circle cx="12" cy="43" fill="#ebba16" r="3"/><circle cx="9" cy="49" fill="#ebba16" r="3"/><circle cx="15" cy="49" fill="#ebba16" r="3"/><path d="m51 48-5-3-5 3 5 6z" fill="#2d6d77"/><path d="m51 48-5-2-5 2 5-10z" fill="#408a9b"/></svg>